<svg width="54" height="30" viewBox="0 0 54 30" fill="none" xmlns="http://www.w3.org/2000/svg">
<path d="M44.704 20V11.6H43.348C43.3 11.92 43.2 12.188 43.048 12.404C42.896 12.62 42.708 12.796 42.484 12.932C42.268 13.06 42.02 13.152 41.74 13.208C41.468 13.256 41.184 13.276 40.888 13.268V14.552H43V20H44.704ZM47.112 14.828H48.744C48.744 14.604 48.764 14.38 48.804 14.156C48.852 13.924 48.928 13.716 49.032 13.532C49.136 13.34 49.272 13.188 49.44 13.076C49.616 12.956 49.828 12.896 50.076 12.896C50.444 12.896 50.744 13.012 50.976 13.244C51.216 13.468 51.336 13.784 51.336 14.192C51.336 14.448 51.276 14.676 51.156 14.876C51.044 15.076 50.9 15.256 50.724 15.416C50.556 15.576 50.368 15.724 50.16 15.86C49.952 15.988 49.756 16.116 49.572 16.244C49.212 16.492 48.868 16.736 48.54 16.976C48.22 17.216 47.94 17.48 47.7 17.768C47.46 18.048 47.268 18.368 47.124 18.728C46.988 19.088 46.92 19.512 46.92 20H53.088V18.536H49.116C49.324 18.248 49.564 17.996 49.836 17.78C50.108 17.564 50.388 17.364 50.676 17.18C50.964 16.988 51.248 16.796 51.528 16.604C51.816 16.412 52.072 16.2 52.296 15.968C52.52 15.728 52.7 15.456 52.836 15.152C52.972 14.848 53.04 14.484 53.04 14.06C53.04 13.652 52.96 13.284 52.8 12.956C52.648 12.628 52.44 12.352 52.176 12.128C51.912 11.904 51.604 11.732 51.252 11.612C50.908 11.492 50.544 11.432 50.16 11.432C49.656 11.432 49.208 11.52 48.816 11.696C48.432 11.864 48.112 12.104 47.856 12.416C47.6 12.72 47.408 13.08 47.28 13.496C47.152 13.904 47.096 14.348 47.112 14.828Z" fill="white"/>
<mask id="mask0" mask-type="alpha" maskUnits="userSpaceOnUse" x="5" y="5" width="20" height="20">
<path fill-rule="evenodd" clip-rule="evenodd" d="M24 9H22V18H9V20C9 20.55 9.45 21 10 21H21L25 25V10C25 9.45 24.55 9 24 9ZM20 15V6C20 5.45 19.55 5 19 5H6C5.45 5 5 5.45 5 6V20L9 16H19C19.55 16 20 15.55 20 15Z" fill="white"/>
</mask>
<g mask="url(#mask0)">
<rect x="2" y="2" width="26" height="26" fill="white"/>
</g>
</svg>
