<svg width="61" height="30" viewBox="0 0 61 30" fill="none" xmlns="http://www.w3.org/2000/svg">
<path d="M40.444 14.828H42.076C42.076 14.604 42.096 14.38 42.136 14.156C42.184 13.924 42.26 13.716 42.364 13.532C42.468 13.34 42.604 13.188 42.772 13.076C42.948 12.956 43.16 12.896 43.408 12.896C43.776 12.896 44.076 13.012 44.308 13.244C44.548 13.468 44.668 13.784 44.668 14.192C44.668 14.448 44.608 14.676 44.488 14.876C44.376 15.076 44.232 15.256 44.056 15.416C43.888 15.576 43.7 15.724 43.492 15.86C43.284 15.988 43.088 16.116 42.904 16.244C42.544 16.492 42.2 16.736 41.872 16.976C41.552 17.216 41.272 17.48 41.032 17.768C40.792 18.048 40.6 18.368 40.456 18.728C40.32 19.088 40.252 19.512 40.252 20H46.42V18.536H42.448C42.656 18.248 42.896 17.996 43.168 17.78C43.44 17.564 43.72 17.364 44.008 17.18C44.296 16.988 44.58 16.796 44.86 16.604C45.148 16.412 45.404 16.2 45.628 15.968C45.852 15.728 46.032 15.456 46.168 15.152C46.304 14.848 46.372 14.484 46.372 14.06C46.372 13.652 46.292 13.284 46.132 12.956C45.98 12.628 45.772 12.352 45.508 12.128C45.244 11.904 44.936 11.732 44.584 11.612C44.24 11.492 43.876 11.432 43.492 11.432C42.988 11.432 42.54 11.52 42.148 11.696C41.764 11.864 41.444 12.104 41.188 12.416C40.932 12.72 40.74 13.08 40.612 13.496C40.484 13.904 40.428 14.348 40.444 14.828ZM52.872 13.064V11.6H47.136V13.184H51.12C50.32 14.152 49.672 15.216 49.176 16.376C48.688 17.536 48.396 18.744 48.3 20H50.124C50.132 19.44 50.196 18.836 50.316 18.188C50.444 17.54 50.62 16.9 50.844 16.268C51.076 15.636 51.36 15.04 51.696 14.48C52.04 13.92 52.432 13.448 52.872 13.064ZM59.3359 13.004V11.6H54.6439L53.8159 16.244H55.3519C55.5199 16.012 55.6999 15.844 55.8919 15.74C56.0839 15.628 56.3319 15.572 56.6359 15.572C56.8679 15.572 57.0719 15.612 57.2479 15.692C57.4239 15.772 57.5759 15.884 57.7039 16.028C57.8319 16.172 57.9279 16.34 57.9919 16.532C58.0559 16.724 58.0879 16.928 58.0879 17.144C58.0879 17.352 58.0519 17.556 57.9799 17.756C57.9159 17.948 57.8199 18.12 57.6919 18.272C57.5719 18.416 57.4199 18.536 57.2359 18.632C57.0599 18.72 56.8599 18.764 56.6359 18.764C56.2519 18.764 55.9359 18.652 55.6879 18.428C55.4399 18.196 55.2959 17.888 55.2559 17.504H53.5519C53.5599 17.944 53.6479 18.332 53.8159 18.668C53.9919 18.996 54.2239 19.272 54.5119 19.496C54.7999 19.72 55.1279 19.888 55.4959 20C55.8719 20.104 56.2639 20.156 56.6719 20.156C57.0959 20.164 57.4959 20.096 57.8719 19.952C58.2479 19.8 58.5759 19.588 58.8559 19.316C59.1439 19.044 59.3719 18.724 59.5399 18.356C59.7079 17.98 59.7919 17.576 59.7919 17.144C59.7919 16.752 59.7319 16.384 59.6119 16.04C59.4999 15.688 59.3319 15.384 59.1079 15.128C58.8919 14.872 58.6239 14.668 58.3039 14.516C57.9839 14.364 57.6159 14.288 57.1999 14.288C56.8639 14.288 56.5639 14.34 56.2999 14.444C56.0359 14.54 55.7879 14.704 55.5559 14.936L55.5319 14.912L55.8679 13.004H59.3359Z" fill="white"/>
<mask id="mask0" mask-type="alpha" maskUnits="userSpaceOnUse" x="4" y="7" width="22" height="16">
<path fill-rule="evenodd" clip-rule="evenodd" d="M15 7.5C10 7.5 5.73 10.61 4 15C5.73 19.39 10 22.5 15 22.5C20 22.5 24.27 19.39 26 15C24.27 10.61 20 7.5 15 7.5ZM15 20C12.24 20 10 17.76 10 15C10 12.24 12.24 10 15 10C17.76 10 20 12.24 20 15C20 17.76 17.76 20 15 20ZM15 12C13.34 12 12 13.34 12 15C12 16.66 13.34 18 15 18C16.66 18 18 16.66 18 15C18 13.34 16.66 12 15 12Z" fill="white"/>
</mask>
<g mask="url(#mask0)">
<rect x="2" y="2" width="26" height="26" fill="white"/>
</g>
</svg>
